<svg width="24" height="24" viewBox="0 0 24 24" fill="none" xmlns="http://www.w3.org/2000/svg">
<path d="M7.72222 18.2222C7.98981 18.2222 8.21428 18.1316 8.39561 17.9502C8.57694 17.7689 8.6673 17.5447 8.66667 17.2778V11.9444C8.66667 11.6769 8.576 11.4524 8.39467 11.2711C8.21333 11.0897 7.98919 10.9994 7.72222 11C7.45463 11 7.23017 11.0907 7.04883 11.272C6.8675 11.4533 6.77715 11.6775 6.77778 11.9444V17.2778C6.77778 17.5454 6.86845 17.7698 7.04978 17.9512C7.23111 18.1325 7.45526 18.2229 7.72222 18.2222ZM11.5 18.2222C11.7676 18.2222 11.9921 18.1316 12.1734 17.9502C12.3547 17.7689 12.4451 17.5447 12.4444 17.2778V8.72222C12.4444 8.45463 12.3538 8.23017 12.1724 8.04884C11.9911 7.8675 11.767 7.77715 11.5 7.77778C11.2324 7.77778 11.0079 7.86845 10.8266 8.04978C10.6453 8.23111 10.5549 8.45526 10.5556 8.72222V17.2778C10.5556 17.5454 10.6462 17.7698 10.8276 17.9512C11.0089 18.1325 11.233 18.2229 11.5 18.2222ZM15.2778 18.2222C15.5454 18.2222 15.7698 18.1316 15.9512 17.9502C16.1325 17.7689 16.2228 17.5447 16.2222 17.2778V15.3889C16.2222 15.1213 16.1316 14.8968 15.9502 14.7155C15.7689 14.5342 15.5447 14.4438 15.2778 14.4444C15.0102 14.4444 14.7857 14.5351 14.6044 14.7164C14.4231 14.8978 14.3327 15.1219 14.3333 15.3889V17.2778C14.3333 17.5454 14.424 17.7698 14.6053 17.9512C14.7867 18.1325 15.0108 18.2229 15.2778 18.2222ZM4.88889 22C4.36945 22 3.92461 21.8149 3.55439 21.4447C3.18417 21.0744 2.99937 20.6299 3 20.1111V4.88889C3 4.36945 3.18511 3.92461 3.55533 3.55439C3.92556 3.18417 4.37008 2.99937 4.88889 3H12.4444C12.712 3 12.9365 3.09067 13.1178 3.272C13.2992 3.45334 13.3895 3.67748 13.3889 3.94445C13.3889 4.21204 13.2982 4.4365 13.1169 4.61784C12.9356 4.79917 12.7114 4.88952 12.4444 4.88889H5.88889C5.3366 4.88889 4.88889 5.33661 4.88889 5.88889V19.1111C4.88889 19.6634 5.33661 20.1111 5.88889 20.1111H17.1111C17.6634 20.1111 18.1111 19.6634 18.1111 19.1111V12.5556C18.1111 12.288 18.2018 12.0635 18.3831 11.8822C18.5644 11.7008 18.7886 11.6105 19.0556 11.6111C19.3231 11.6111 19.5476 11.7018 19.7289 11.8831C19.9103 12.0644 20.0006 12.2886 20 12.5556V20.1111C20 20.6306 19.8149 21.0754 19.4447 21.4456C19.0744 21.8158 18.6299 22.0006 18.1111 22H4.88889ZM17.1667 8.66667C16.8991 8.66667 16.6746 8.576 16.4933 8.39467C16.3119 8.21333 16.2216 7.98919 16.2222 7.72222V6.77778H15.2778C15.0102 6.77778 14.7857 6.68711 14.6044 6.50578C14.4231 6.32445 14.3327 6.1003 14.3333 5.83334C14.3333 5.56574 14.424 5.34128 14.6053 5.15995C14.7867 4.97861 15.0108 4.88826 15.2778 4.88889H16.2222V3.94445C16.2222 3.67685 16.3129 3.45239 16.4942 3.27106C16.6756 3.08973 16.8997 2.99937 17.1667 3C17.4343 3 17.6587 3.09067 17.8401 3.272C18.0214 3.45334 18.1117 3.67748 18.1111 3.94445V4.88889H19.0556C19.3231 4.88889 19.5476 4.97956 19.7289 5.16089C19.9103 5.34222 20.0006 5.56637 20 5.83334C20 6.10093 19.9093 6.32539 19.728 6.50672C19.5467 6.68806 19.3225 6.77841 19.0556 6.77778H18.1111V7.72222C18.1111 7.98982 18.0204 8.21428 17.8391 8.39561C17.6578 8.57695 17.4336 8.6673 17.1667 8.66667Z" fill="white"/>
</svg>
